# xmcd CD database file
#
# Track frame offsets:
#	154
#	47371
#	71567
#	101207
#	109882
#	128372
#	152067
#	174193
#	198019
#	210860
#	226672
#	244842
#	282256
#
# Disc length: 4130 seconds
#
# Revision: 0
# Processed by: cddbd v1.5.2PL0 Copyright (c) Steve Scherf et al.
# Submitted via: CDex 1.51
#
DISCID=9e10200d
DTITLE=Various Artist - CHOPIN with ME
DYEAR=1900
DGENRE=New Age
TTITLE0=Piano Concerto No. 1 in E minor, Op. 11
TTITLE1=Waltz No. 1 "Grande Valse Brillante" in E flat major, Op. 18
TTITLE2="Heroic" Polonaise in A flat Op. 53
TTITLE3=Waltz No. 6 "Petit Chien" in D flat, Op. 64-1
TTITLE4=Etude "Chanson" No. 3 in E, Op. 10-3
TTITLE5=Berceuse in D flat, Op. 57
TTITLE6=Fantasie Impromptu in C sharp minor, Op. 66
TTITLE7=Prelude "Raindrop" in D flat, Op. 28-15
TTITLE8=Etude "Revolutionary" No. 12 in C minor, Op. 10-12
TTITLE9=Nocturne No. 5 in F sharp, Op. 15-2
TTITLE10=Mazurka No. 21 in C sharp minor, op. 30-4
TTITLE11="Barcarolle" in F sharp, Op. 60
TTITLE12=Polonaise No. 3 "Militaire" in A, Op. 40-1
EXTD=
EXTT0=
EXTT1=
EXTT2=
EXTT3=
EXTT4=
EXTT5=
EXTT6=
EXTT7=
EXTT8=
EXTT9=
EXTT10=
EXTT11=
EXTT12=
PLAYORDER=
